<?xml version="1.0" encoding="UTF-8" standalone="no"?>
<!DOCTYPE svg PUBLIC "-//W3C//DTD SVG 1.1//EN" "http://www.w3.org/Graphics/SVG/1.1/DTD/svg11.dtd">
<svg xmlns="http://www.w3.org/2000/svg" version="1.1" viewBox="0.00 0.00 1401.00 1495.00">
<path fill="#5ab48c" d="
  M 0.00 1464.94
  L 0.00 29.95
  C 1.81 10.05 14.88 4.96 32.50 4.95
  Q 259.75 4.75 487.00 4.75
  C 500.87 4.75 513.75 7.67 518.39 22.01
  Q 519.95 26.83 519.96 41.28
  Q 520.05 132.88 520.01 224.50
  C 520.01 243.29 509.35 253.22 490.75 253.22
  Q 369.71 253.25 248.77 253.25
  A 0.53 0.52 90.0 0 0 248.25 253.78
  L 248.25 558.24
  Q 248.25 558.73 248.74 558.73
  Q 354.53 558.79 460.24 558.74
  C 478.71 558.73 488.24 570.61 488.24 588.34
  Q 488.26 682.88 488.25 777.41
  C 488.25 798.70 476.74 807.24 456.48 807.24
  Q 352.62 807.26 248.83 807.25
  A 0.58 0.57 -0.0 0 0 248.25 807.82
  Q 248.25 1136.03 248.25 1464.50
  Q 248.25 1465.99 247.16 1470.97
  C 244.00 1485.48 232.36 1490.48 218.70 1490.48
  Q 128.10 1490.53 37.50 1490.48
  Q 22.66 1490.47 17.65 1488.98
  Q 1.79 1484.26 0.00 1464.94
  Z"
/>
<path fill="#5ab48c" d="
  M 1401.00 32.56
  L 1401.00 1463.06
  C 1399.46 1480.42 1391.06 1490.47 1372.76 1490.48
  Q 1273.03 1490.54 1173.30 1490.47
  Q 1160.03 1490.46 1155.01 1488.87
  C 1140.47 1484.27 1137.76 1472.21 1137.76 1458.05
  Q 1137.74 1129.15 1137.73 800.25
  Q 1137.73 796.28 1137.41 792.30
  Q 1137.36 791.67 1137.20 792.29
  Q 1067.63 1064.28 998.02 1336.26
  C 995.14 1347.50 984.49 1354.34 977.57 1340.52
  Q 976.51 1338.40 975.55 1334.68
  Q 906.34 1064.27 837.16 793.84
  Q 837.07 793.45 837.09 793.02
  Q 837.13 792.27 837.09 792.19
  Q 836.25 790.49 836.25 792.39
  Q 836.25 1128.16 836.25 1463.75
  C 836.25 1480.78 824.25 1490.49 807.92 1490.49
  Q 704.46 1490.51 601.00 1490.50
  C 582.42 1490.50 573.00 1478.86 573.00 1460.98
  Q 573.00 747.99 572.99 35.00
  C 572.99 12.86 584.55 4.78 605.74 4.77
  Q 693.87 4.72 782.00 4.71
  Q 788.54 4.71 794.40 7.00
  C 805.39 11.28 817.60 26.25 820.13 37.72
  Q 903.43 415.59 986.78 793.36
  A 0.20 0.20 0.0 0 0 987.17 793.36
  Q 1070.38 416.28 1153.63 39.13
  C 1156.81 24.73 1170.64 7.74 1185.28 5.30
  Q 1188.45 4.77 1196.36 4.77
  Q 1282.30 4.73 1368.25 4.81
  C 1388.81 4.83 1399.05 11.31 1401.00 32.56
  Z"
/>
</svg>
